<svg xmlns="http://www.w3.org/2000/svg" xmlns:xlink="http://www.w3.org/1999/xlink" width="100" height="112" viewBox="0 0 100 112"><defs><style>.a{fill:#cecece;}.b{fill:#ec9800;font-size:70px;font-family:SegoeUI-Bold, Segoe UI;font-weight:700;}.c,.d{stroke:none;}.d{fill:#707070;}.e{filter:url(#a);}</style><filter id="a" x="12" y="0" width="77" height="112" filterUnits="userSpaceOnUse"><feOffset dy="3" input="SourceAlpha"/><feGaussianBlur stdDeviation="3" result="b"/><feFlood flood-opacity="0.161"/><feComposite operator="in" in2="b"/><feComposite in="SourceGraphic"/></filter></defs><g transform="translate(-52 -47)"><g class="a" transform="translate(52 53)"><path class="c" d="M 91 99.5 L 9 99.5 C 4.313079833984375 99.5 0.5 95.68692016601563 0.5 91 L 0.5 9 C 0.5 4.313079833984375 4.313079833984375 0.5 9 0.5 L 91 0.5 C 95.68692016601563 0.5 99.5 4.313079833984375 99.5 9 L 99.5 91 C 99.5 95.68692016601563 95.68692016601563 99.5 91 99.5 Z"/><path class="d" d="M 9 1 C 4.588783264160156 1 1 4.588783264160156 1 9 L 1 91 C 1 95.41121673583984 4.588783264160156 99 9 99 L 91 99 C 95.41121673583984 99 99 95.41121673583984 99 91 L 99 9 C 99 4.588783264160156 95.41121673583984 1 91 1 L 9 1 M 9 0 L 91 0 C 95.97055816650391 0 100 4.029426574707031 100 9 L 100 91 C 100 95.97055816650391 95.97055816650391 100 91 100 L 9 100 C 4.029426574707031 100 0 95.97055816650391 0 91 L 0 9 C 0 4.029426574707031 4.029426574707031 0 9 0 Z"/></g><g class="e" transform="matrix(1, 0, 0, 1, 52, 47)"><text class="b" transform="translate(21 6)"><tspan x="9.368" y="76">5</tspan></text></g></g></svg>