<svg xmlns="http://www.w3.org/2000/svg" width="100" height="100" viewBox="0 0 100 100"><defs><style>.a{stroke:#000;}.b{fill:#fff;}.c{stroke:none;}.d{fill:none;}</style></defs><g transform="translate(-52 -53)"><g class="a" transform="translate(52 53)"><rect class="c" width="100" height="100" rx="9"/><rect class="d" x="0.5" y="0.5" width="99" height="99" rx="8.5"/></g><g transform="translate(68.043 69.043)"><path class="b" d="M283.058,208.029a6.029,6.029,0,1,0-6.029,6.029A6.036,6.036,0,0,0,283.058,208.029Zm-6.029,2.01a2.01,2.01,0,1,1,2.01-2.01A2.012,2.012,0,0,1,277.029,210.039Zm0,0" transform="translate(-234.69 -174.935)"/><path class="b" d="M157.029,202a6.029,6.029,0,1,0,6.029,6.029A6.036,6.036,0,0,0,157.029,202Zm0,8.039a2.01,2.01,0,1,1,2.01-2.01A2.012,2.012,0,0,1,157.029,210.039Zm0,0" transform="translate(-130.768 -174.935)"/><path class="b" d="M61.23,48.5a7.282,7.282,0,0,0-3.373.83l-5.268-5.269A22.145,22.145,0,0,0,54.5,22.631l3.362-3.363a7.282,7.282,0,0,0,3.373.83A7.37,7.37,0,0,0,63.02,5.579,7.37,7.37,0,0,0,48.5,7.369a7.282,7.282,0,0,0,.83,3.373l-2.6,2.6a22.062,22.062,0,0,0-24.855,0l-2.6-2.6a7.282,7.282,0,0,0,.83-3.373A7.37,7.37,0,0,0,5.579,5.579,7.37,7.37,0,0,0,7.369,20.1a7.282,7.282,0,0,0,3.373-.83L14.1,22.631a22.145,22.145,0,0,0,1.906,21.432l-5.268,5.269a7.282,7.282,0,0,0-3.373-.83A7.37,7.37,0,0,0,5.579,63.02,7.37,7.37,0,0,0,20.1,61.23a7.282,7.282,0,0,0-.83-3.373l2.3-2.3v.183a2.01,2.01,0,0,0,2.01,2.01H45.018a2.01,2.01,0,0,0,2.01-2.01v-.183l2.3,2.3a7.282,7.282,0,0,0-.83,3.373A7.37,7.37,0,0,0,63.02,63.02,7.37,7.37,0,0,0,61.23,48.5ZM53.356,12.4a2.009,2.009,0,0,0,.06-2.78,3.342,3.342,0,1,1,5.805-2.253,2.01,2.01,0,0,0,2.01,2.01,3.35,3.35,0,1,1-2.253,5.805,2.009,2.009,0,0,0-2.78.06L52.44,19a22.26,22.26,0,0,0-2.6-3.085ZM12.4,15.244a2.009,2.009,0,0,0-2.78-.06A3.342,3.342,0,1,1,7.369,9.379a2.01,2.01,0,0,0,2.01-2.01,3.35,3.35,0,1,1,5.805,2.253,2.009,2.009,0,0,0,.06,2.78l3.513,3.513A22.263,22.263,0,0,0,16.159,19ZM15.244,56.2a2.009,2.009,0,0,0-.06,2.78A3.342,3.342,0,1,1,9.379,61.23a2.01,2.01,0,0,0-2.01-2.01,3.35,3.35,0,1,1,2.253-5.805,2.009,2.009,0,0,0,2.78-.06l6.181-6.181A22.322,22.322,0,0,0,21.571,49.7v.173Zm27.765-2.47h-2.68v-2.01a2.01,2.01,0,0,0-4.019,0v2.01H32.29v-2.01a2.01,2.01,0,0,0-4.019,0v2.01h-2.68v-5.1a2.01,2.01,0,0,0-.936-1.7,18.087,18.087,0,1,1,19.29,0,2.009,2.009,0,0,0-.936,1.7ZM61.23,59.22a2.01,2.01,0,0,0-2.01,2.01,3.35,3.35,0,1,1-5.805-2.253,2.009,2.009,0,0,0-.06-2.78L47.028,49.87V49.7a22.288,22.288,0,0,0,2.988-2.522L56.2,53.356a2.01,2.01,0,0,0,2.78.06A3.342,3.342,0,1,1,61.23,59.22Zm0,0" transform="translate(0)"/></g></g></svg>