<svg xmlns="http://www.w3.org/2000/svg" width="100" height="100" viewBox="0 0 100 100"><g transform="translate(-52 -53)"><g transform="translate(52 53)" fill="#707070" stroke="#707070" stroke-width="1"><rect width="100" height="100" rx="9" stroke="none"/><rect x="0.5" y="0.5" width="99" height="99" rx="8.5" fill="none"/></g><g transform="translate(-693 -1548)"><rect width="99" height="99" transform="translate(746 1602)" fill="rgba(0,0,0,0)"/><path d="M4.137,71A4.161,4.161,0,0,1,0,66.824V4.176A4.161,4.161,0,0,1,4.137,0H30.5a4.11,4.11,0,0,1,3.72,2.3L37.2,8.352H57.867A4.159,4.159,0,0,1,62,12.528V45.94a4.159,4.159,0,0,1-4.133,4.176H35.589a4.139,4.139,0,0,1-3.679-2.3l-2.976-6.056H8.269V66.824A4.159,4.159,0,0,1,4.137,71Zm28.93-37.588L37.2,41.763H53.734V16.7H33.066L28.933,8.352H8.269v25.06Z" transform="translate(765 1618)" fill="#fff"/></g></g></svg>